<?xml version="1.0" standalone="no"?>
<!DOCTYPE svg PUBLIC "-//W3C//DTD SVG 20010904//EN"
 "http://www.w3.org/TR/2001/REC-SVG-20010904/DTD/svg10.dtd">
<svg version="1.0" xmlns="http://www.w3.org/2000/svg"
 width="200.000000pt" height="200.000000pt" viewBox="0 0 200.000000 200.000000"
 preserveAspectRatio="xMidYMid meet">
<metadata>
Created by potrace 1.11, written by Peter Selinger 2001-2013
</metadata>
<g transform="translate(0.000000,200.000000) scale(0.100000,-0.100000)"
fill="#000000" stroke="none">
<path d="M938 1445 c-2 -2 -28 -5 -58 -9 -266 -29 -412 -152 -405 -341 3 -86
11 -111 90 -265 40 -77 122 -189 184 -250 68 -67 129 -103 194 -115 l37 -7 1
-62 c0 -33 3 -96 5 -140 4 -66 2 -82 -13 -100 -17 -20 -19 -42 -14 -133 1 -22
4 -23 117 -23 l116 0 -7 58 c-4 31 -8 65 -9 75 0 10 -6 21 -13 25 -7 5 -14 68
-18 187 l-7 181 42 29 c107 74 249 294 281 434 32 144 4 267 -80 348 -35 34
-134 80 -201 94 -47 9 -235 20 -242 14z"/>
</g>
</svg>
